<svg width="85" height="86" viewBox="0 0 85 86" fill="none" xmlns="http://www.w3.org/2000/svg">
<path d="M42.5 85.5256C65.9721 85.5256 85 66.4977 85 43.0256C85 19.5535 65.9721 0.525635 42.5 0.525635C19.0279 0.525635 0 19.5535 0 43.0256C0 66.4977 19.0279 85.5256 42.5 85.5256Z" fill="url(#paint0_radial_981_10467)"/>
<path d="M40.4688 40.1604L42.4094 30.4154H44.0028L43.6811 32.0485L43.2393 33.9495L42.998 35.8636L42.1416 40.1604H40.4688ZM45.3143 37.6577C44.7163 37.6577 44.1987 37.5488 43.7616 37.3293C43.3244 37.1107 42.9942 36.7852 42.7709 36.3519C42.5476 35.9195 42.4454 35.3811 42.4634 34.7386C42.4813 33.8463 42.6413 33.0695 42.945 32.409C43.2487 31.7486 43.6745 31.2376 44.2233 30.8762C44.7721 30.5147 45.4259 30.334 46.1839 30.334C46.7724 30.334 47.3042 30.457 47.7773 30.7021C48.2504 30.9471 48.627 31.3048 48.908 31.7732C49.189 32.2415 49.33 32.8064 49.33 33.4669C49.33 34.0744 49.2297 34.6317 49.0291 35.1398C48.8285 35.6489 48.5447 36.0898 48.1794 36.4654C47.8132 36.8401 47.3874 37.1325 46.9011 37.3426C46.4147 37.5526 45.8858 37.6567 45.3152 37.6567L45.3143 37.6577ZM45.1809 36.2251C45.6625 36.2251 46.0864 36.1115 46.4526 35.8835C46.8188 35.6555 47.1083 35.3413 47.3231 34.9401C47.5379 34.5389 47.6439 34.0744 47.6439 33.5483C47.6439 32.9947 47.4783 32.5576 47.149 32.2368C46.8188 31.9151 46.3551 31.7552 45.7571 31.7552C45.284 31.7552 44.862 31.8687 44.492 32.0968C44.1221 32.3239 43.8297 32.639 43.6149 33.0401C43.4001 33.4413 43.2941 33.9059 43.2941 34.432C43.2941 34.9856 43.4588 35.4227 43.789 35.7435C44.1192 36.0652 44.5829 36.2251 45.1809 36.2251Z" fill="white"/>
<path d="M53.7621 37.6577C53.0477 37.6577 52.4279 37.5262 51.9018 37.2631C51.3748 37.0001 50.967 36.6339 50.6774 36.1655C50.387 35.6972 50.2422 35.1465 50.2422 34.5125C50.2422 33.7007 50.421 32.9825 50.7777 32.357C51.1345 31.7325 51.6227 31.2396 52.2434 30.8781C52.8632 30.5167 53.571 30.3359 54.3648 30.3359C55.0338 30.3359 55.6138 30.4608 56.1049 30.7106C56.596 30.9604 56.9773 31.32 57.2498 31.7884C57.5223 32.2567 57.6576 32.8169 57.6576 33.4679C57.6576 33.6373 57.6491 33.8114 57.6311 33.9902C57.6132 34.169 57.5867 34.3337 57.5507 34.4851H51.4865L51.6738 33.3742H56.7606L56.0784 33.7489C56.1494 33.2938 56.1182 32.9144 55.9847 32.6106C55.8504 32.3069 55.6365 32.0751 55.3423 31.9142C55.048 31.7534 54.6951 31.6729 54.2844 31.6729C53.7933 31.6729 53.3675 31.7865 53.0061 32.0145C52.6446 32.2426 52.3655 32.5633 52.1696 32.9787C51.9728 33.3941 51.8753 33.8776 51.8753 34.4311C51.8753 34.9847 52.0428 35.4578 52.3778 35.77C52.7127 36.0823 53.2322 36.2384 53.9371 36.2384C54.3383 36.2384 54.7225 36.1741 55.0887 36.0444C55.4549 35.9148 55.7577 35.7341 55.9989 35.5022L56.6953 36.667C56.3206 36.9973 55.8769 37.2452 55.3631 37.4098C54.8502 37.5745 54.3166 37.6577 53.763 37.6577H53.7621Z" fill="white"/>
<path d="M58.6479 40.255C58.2912 40.255 57.9411 40.1972 57.5966 40.0809C57.2532 39.9645 56.9788 39.8131 56.7734 39.6257L57.6033 38.408C57.7547 38.5414 57.9269 38.6511 58.1189 38.7363C58.311 38.8214 58.5315 38.8631 58.7813 38.8631C59.0576 38.8631 59.3055 38.7893 59.5241 38.6426C59.7426 38.495 59.9631 38.2433 60.1864 37.8866L60.8156 36.9092L60.9765 36.7351L64.9118 30.4172H66.5847L61.6587 38.1941C61.3285 38.7117 61.0115 39.1223 60.7087 39.4261C60.405 39.7298 60.0909 39.9437 59.7654 40.0686C59.4399 40.1935 59.0671 40.2559 58.6479 40.2559V40.255ZM60.4816 37.8185L58.7283 30.4163H60.4012L61.8063 36.5874L60.4807 37.8194L60.4816 37.8185Z" fill="white"/>
<path d="M69.2077 37.6577C68.6277 37.6577 68.0987 37.5328 67.6219 37.283C67.144 37.0332 66.7655 36.6736 66.4845 36.2053C66.2035 35.7369 66.0625 35.172 66.0625 34.5115C66.0625 33.905 66.1628 33.3467 66.3634 32.8386C66.564 32.3305 66.8479 31.8886 67.2131 31.513C67.5793 31.1383 68.0051 30.8488 68.4914 30.6425C68.9778 30.4372 69.5105 30.335 70.0915 30.335C70.6724 30.335 71.2042 30.4419 71.6376 30.6567C72.07 30.8705 72.3983 31.1941 72.6216 31.6275C72.8449 32.0608 72.9471 32.5983 72.9292 33.2408C72.9112 34.1245 72.7503 34.8985 72.4475 35.5628C72.1438 36.228 71.7199 36.7427 71.1758 37.1089C70.6317 37.4751 69.9751 37.6577 69.2077 37.6577ZM69.6363 36.2251C70.118 36.2251 70.5419 36.1116 70.908 35.8835C71.2742 35.6555 71.5638 35.3414 71.7786 34.9402C71.9933 34.539 72.1003 34.0744 72.1003 33.5483C72.1003 32.9948 71.9347 32.5576 71.6054 32.2368C71.2752 31.9151 70.8106 31.7552 70.2135 31.7552C69.7404 31.7552 69.3184 31.8688 68.9484 32.0968C68.5775 32.3239 68.2861 32.639 68.0713 33.0402C67.8565 33.4414 67.7505 33.906 67.7505 34.4321C67.7505 34.9856 67.9152 35.4227 68.2454 35.7435C68.5756 36.0652 69.0393 36.2251 69.6373 36.2251H69.6363ZM71.3897 37.564L71.7114 35.9308L72.1665 34.0299L72.3945 32.1157L72.7295 30.4154H74.4024L72.9831 37.564H71.3906H71.3897Z" fill="white"/>
<path d="M38.2041 51.1345L40.1448 41.3895H41.7372L41.4155 43.0226L40.9736 44.9236L40.7323 46.8378L39.876 51.1345H38.2031H38.2041ZM43.0496 48.6318C42.4516 48.6318 41.934 48.523 41.4969 48.3034C41.0597 48.0849 40.7295 47.7594 40.5062 47.326C40.2829 46.8936 40.1807 46.3552 40.1987 45.7127C40.2167 44.8204 40.3775 44.0436 40.6803 43.3831C40.984 42.7227 41.4098 42.2117 41.9586 41.8503C42.5074 41.4888 43.1613 41.3081 43.9201 41.3081C44.5087 41.3081 45.0395 41.4311 45.5126 41.6762C45.9857 41.9212 46.3623 42.2789 46.6433 42.7473C46.9243 43.2157 47.0653 43.7806 47.0653 44.441C47.0653 45.0485 46.965 45.6058 46.7644 46.1139C46.5638 46.622 46.28 47.0639 45.9147 47.4395C45.5486 47.8142 45.1228 48.1066 44.6364 48.3167C44.1501 48.5267 43.6211 48.6308 43.0506 48.6308L43.0496 48.6318ZM42.9153 47.1992C43.3969 47.1992 43.8208 47.0857 44.187 46.8576C44.5531 46.6305 44.8427 46.3155 45.0575 45.9143C45.2713 45.5131 45.3782 45.0485 45.3782 44.5224C45.3782 43.9689 45.2127 43.5317 44.8834 43.2109C44.5531 42.8902 44.0886 42.7293 43.4915 42.7293C43.0184 42.7293 42.5964 42.8429 42.2264 43.0709C41.8564 43.2989 41.5641 43.6131 41.3493 44.0143C41.1345 44.4155 41.0276 44.8801 41.0276 45.4061C41.0276 45.9597 41.1922 46.3968 41.5224 46.7176C41.8527 47.0393 42.3163 47.1992 42.9143 47.1992H42.9153Z" fill="white"/>
<path d="M51.1218 48.6318C50.5417 48.6318 50.0128 48.5069 49.5359 48.2571C49.0581 48.0073 48.6796 47.6477 48.3986 47.1793C48.1175 46.711 47.9766 46.1461 47.9766 45.4856C47.9766 44.8791 48.0769 44.3208 48.2775 43.8118C48.4781 43.3027 48.7619 42.8618 49.1272 42.4861C49.4933 42.1114 49.9191 41.8219 50.4055 41.6156C50.8918 41.4103 51.4246 41.3081 52.0055 41.3081C52.5865 41.3081 53.1183 41.415 53.5516 41.6298C53.9841 41.8437 54.3124 42.1673 54.5357 42.6006C54.759 43.034 54.8612 43.5714 54.8432 44.2139C54.8252 45.0977 54.6644 45.8717 54.3616 46.5369C54.0579 47.202 53.634 47.7168 53.0899 48.083C52.5458 48.4492 51.8891 48.6318 51.1218 48.6318ZM51.5504 47.1992C52.032 47.1992 52.4559 47.0857 52.8221 46.8576C53.1883 46.6305 53.4778 46.3155 53.6926 45.9143C53.9074 45.5131 54.0143 45.0485 54.0143 44.5224C54.0143 43.9689 53.8487 43.5317 53.5195 43.2109C53.1892 42.8902 52.7246 42.7293 52.1276 42.7293C51.6545 42.7293 51.2325 42.8429 50.8625 43.0709C50.4916 43.2989 50.2002 43.6131 49.9854 44.0143C49.7706 44.4155 49.6646 44.8801 49.6646 45.4061C49.6646 45.9597 49.8292 46.3968 50.1595 46.7176C50.4897 47.0393 50.9533 47.1992 51.5513 47.1992H51.5504ZM53.3037 48.5381L53.6254 46.9049L54.0806 45.004L54.3086 43.0898L54.6436 41.3895H56.3165L54.8971 48.5381H53.3047H53.3037Z" fill="white"/>
<path d="M57.2807 51.2291C56.924 51.2291 56.5739 51.1714 56.2295 51.055C55.886 50.9386 55.6116 50.7872 55.4062 50.5999L56.2361 49.3821C56.3875 49.5155 56.5597 49.6253 56.7518 49.7104C56.9438 49.7946 57.1643 49.8372 57.4141 49.8372C57.6904 49.8372 57.9383 49.7634 58.1569 49.6167C58.3755 49.4691 58.5959 49.2174 58.8192 48.8607L59.4485 47.8833L59.6093 47.7092L63.5446 41.3913H65.2175L60.2915 49.1692C59.9613 49.6868 59.6443 50.0974 59.3415 50.4002C59.0378 50.7039 58.7237 50.9178 58.3982 51.0427C58.0727 51.1676 57.6999 51.23 57.2807 51.23V51.2291ZM59.1144 48.7926L57.3611 41.3904H59.034L60.4391 47.5616L59.1135 48.7926H59.1144Z" fill="white"/>
<path d="M29.9786 22.6036C29.9786 22.6036 34.8592 17.619 37.5672 17.0948C40.4333 16.5403 42.1289 15.8761 46.2137 17.1686C46.2137 17.1686 43.7905 13.257 39.014 12.4262C34.2366 11.5954 29.5509 13.1302 26.8665 15.8761C24.6297 18.165 24.0184 18.6059 23.9844 18.6693C23.9844 18.6712 27.3557 19.959 29.9796 22.6027L29.9786 22.6036Z" fill="url(#paint1_linear_981_10467)"/>
<path d="M22.6184 31.0467C22.6184 31.0467 16.7244 36.0446 13.9681 47.8732C13.9681 47.8732 12.5375 57.3343 12.6292 59.504L14.3409 57.7043L14.3873 71.043C14.3873 71.043 22.1415 71.412 21.4952 62.0427V53.8731C21.4952 53.8731 33.6342 49.9965 37.3726 41.8269C41.1111 33.6573 33.567 28.5847 29.6781 28.5619C25.5043 28.5373 22.6184 31.0467 22.6184 31.0467Z" fill="url(#paint2_linear_981_10467)"/>
<path d="M31.9747 10.2573V12.885C31.9747 12.885 28.3167 14.0668 26.2521 16.6272L23.984 18.671C23.984 18.671 20.6846 18.4496 18.3134 21.4974C18.3134 21.4974 15.8731 19.3816 16.0831 18.6029C16.0831 18.6029 16.5657 18.7496 17.58 18.8328C18.5944 18.9161 20.1395 18.936 21.2504 18.1166C22.5864 17.1306 23.2422 16.1816 24.1609 15.1644C24.7693 14.4907 25.6853 13.7394 26.3684 13.1849C28.2921 11.6255 28.2599 10.7891 31.9747 10.2583V10.2573Z" fill="url(#paint3_linear_981_10467)"/>
<path d="M16.0312 18.5879C16.0312 18.5879 17.5774 18.5189 21.2241 14.1341C24.8698 9.74938 25.6504 9.39834 29.1164 9.47214C29.1164 9.47214 30.5291 9.59136 31.9777 10.0806C32.6448 10.3058 30.0853 10.3493 28.8855 11.2728C27.6857 12.1963 25.1007 13.996 24.0854 15.3339C23.0701 16.6728 20.9005 18.8879 19.2389 18.9342C17.5774 18.9806 16.0312 18.5879 16.0312 18.5879Z" fill="url(#paint4_linear_981_10467)"/>
<path d="M29.9798 22.6038L25.5516 27.1314C25.5516 27.1314 21.3722 27.8675 19.9074 24.7677C18.4096 21.5989 21.1025 19.2315 21.8036 19.0138C22.5038 18.7962 24.9413 18.0563 26.9851 19.8191C29.0289 21.5818 29.9808 22.6038 29.9808 22.6038H29.9798Z" fill="#FFF4CB"/>
<path d="M18.8982 29.3539C18.8982 29.3539 20.6978 31.3617 22.3944 31.2236C22.3944 31.2236 26.7772 28.2222 29.9754 28.6272C33.9817 29.1343 36.1116 31.8254 36.1116 31.8254C36.1116 31.8254 35.7539 28.2591 30.2148 26.9789C30.2148 26.9789 28.9469 26.6922 26.4167 27.047C25.6825 27.1501 21.3583 27.7576 19.903 24.7676C18.3106 21.4965 21.7604 19.0137 21.7604 19.0137C21.7604 19.0137 19.6031 19.6391 18.3106 21.4965C17.3199 22.9196 15.8826 25.7545 18.8991 29.3539H18.8982Z" fill="#585857"/>
<path d="M38.0192 37.3503C38.0192 37.3503 34.0688 31.4914 27.1265 36.6577C21.1729 41.0888 18.3106 47.735 14.2031 55.3964C14.2031 55.3964 15.8647 56.0427 17.5262 54.5657C19.1878 53.0886 31.1412 39.2427 34.2798 37.9966C37.4184 36.7504 38.0183 37.3503 38.0183 37.3503H38.0192Z" fill="white"/>
<path d="M38.0196 37.3504C38.0196 37.3504 34.5271 35.335 27.9566 43.0258C27.9566 43.0258 18.9373 53.0253 17.5265 54.5658C16.1157 56.1062 35.4809 38.5038 38.0186 37.3504H38.0196Z" fill="url(#paint5_linear_981_10467)"/>
<path d="M18.057 59.3194C18.057 59.3194 18.1261 65.3193 18.057 67.5344C17.9879 69.7495 16.2422 70.8235 16.2422 70.8235C16.2422 70.8235 21.4955 70.304 21.4955 62.7807V56.0417C21.4955 56.0417 18.057 56.0881 18.057 57.7033V59.3185V59.3194Z" fill="#F5F5F5"/>
<path d="M16.8344 60.1361C16.8344 60.1361 16.8505 65.5778 16.8344 67.5875C16.8183 69.5973 16.4219 70.571 16.4219 70.571C16.4219 70.571 17.616 70.0997 17.616 63.2766V57.165C17.616 57.165 16.8344 57.2067 16.8344 58.6724V60.1371V60.1361Z" fill="#F5F5F5"/>
<path opacity="0.49" fill-rule="evenodd" clip-rule="evenodd" d="M23.2102 18.7346C23.2102 18.7346 25.043 18.3126 26.926 19.7821C28.263 20.8248 29.247 21.8127 29.9794 22.6046L25.5511 27.1323C25.5511 27.1323 23.5158 27.4369 21.8609 26.6185C21.8609 26.6185 19.08 19.6988 23.2112 18.7346H23.2102Z" fill="url(#paint6_linear_981_10467)"/>
<path d="M23.2836 22.4446C23.9494 22.4446 24.4891 21.9049 24.4891 21.2392C24.4891 20.5734 23.9494 20.0337 23.2836 20.0337C22.6178 20.0337 22.0781 20.5734 22.0781 21.2392C22.0781 21.9049 22.6178 22.4446 23.2836 22.4446Z" fill="#1E1E1C"/>
<path fill-rule="evenodd" clip-rule="evenodd" d="M38.3802 37.4053C38.3802 37.4053 39.4106 41.6254 33.9311 46.6516C33.9263 46.6564 33.9216 46.6611 33.9178 46.6658C33.8298 46.7888 32.6007 48.4343 27.6161 51.2133C23.4972 53.5098 21.4922 53.8731 21.4922 53.8731C21.4922 53.8731 38.0282 45.8928 38.3802 37.4053Z" fill="#E4E3E1"/>
<path opacity="0.28" fill-rule="evenodd" clip-rule="evenodd" d="M36.0509 14.8693C36.0509 14.8693 42.3309 14.5069 46.2133 17.1686C46.2133 17.1686 42.1398 11.5859 34.9297 12.6977L36.0519 14.8693H36.0509Z" fill="white"/>
<defs>
<radialGradient id="paint0_radial_981_10467" cx="0" cy="0" r="1" gradientUnits="userSpaceOnUse" gradientTransform="translate(42.5 43.0256) scale(42.5)">
<stop stop-color="#31B4A6"/>
<stop offset="0.23" stop-color="#2CAEA0"/>
<stop offset="0.53" stop-color="#1FA08F"/>
<stop offset="0.88" stop-color="#098973"/>
<stop offset="1" stop-color="#007F68"/>
</radialGradient>
<linearGradient id="paint1_linear_981_10467" x1="36.5311" y1="11.8254" x2="33.7862" y2="23.4988" gradientUnits="userSpaceOnUse">
<stop stop-color="#FECE50"/>
<stop offset="0.99" stop-color="#E83C3B"/>
</linearGradient>
<linearGradient id="paint2_linear_981_10467" x1="15.3704" y1="60.6281" x2="35.8474" y2="25.6202" gradientUnits="userSpaceOnUse">
<stop stop-color="#7E7E80"/>
<stop offset="0.42" stop-color="#5D5B5B"/>
<stop offset="0.78" stop-color="#484544"/>
<stop offset="1" stop-color="#413D3C"/>
</linearGradient>
<linearGradient id="paint3_linear_981_10467" x1="27.6184" y1="17.9888" x2="21.2476" y2="12.5509" gradientUnits="userSpaceOnUse">
<stop stop-color="#FFCF4E"/>
<stop offset="1" stop-color="#E83C3B"/>
</linearGradient>
<linearGradient id="paint4_linear_981_10467" x1="25.4413" y1="8.49187" x2="22.6983" y2="20.1568" gradientUnits="userSpaceOnUse">
<stop stop-color="#FECE4E"/>
<stop offset="1" stop-color="#E83C3B"/>
</linearGradient>
<linearGradient id="paint5_linear_981_10467" x1="17.4537" y1="45.8862" x2="38.0196" y2="45.8862" gradientUnits="userSpaceOnUse">
<stop stop-color="#D3D3D3"/>
<stop offset="0.03" stop-color="#EBEBEB"/>
<stop offset="0.05" stop-color="#FAFAF9"/>
<stop offset="0.06" stop-color="white"/>
</linearGradient>
<linearGradient id="paint6_linear_981_10467" x1="21.1181" y1="25.8766" x2="27.2013" y2="19.7944" gradientUnits="userSpaceOnUse">
<stop stop-color="white"/>
<stop offset="0.45" stop-color="#D3E3E4"/>
<stop offset="0.99" stop-color="#D3E3E4"/>
</linearGradient>
</defs>
</svg>
